<svg width="512" height="512" viewBox="0 0 512 512" fill="none" xmlns="http://www.w3.org/2000/svg">
<rect width="512" height="512" rx="80" fill="white"/>
<path d="M309.333 261.333C309.333 258.388 311.721 256 314.667 256H357.333C360.279 256 362.667 258.388 362.667 261.333V304C362.667 306.946 360.279 309.333 357.333 309.333H314.667C311.721 309.333 309.333 306.946 309.333 304V261.333Z" fill="#FFC008"/>
<path d="M256 314.667C256 311.721 258.388 309.333 261.333 309.333H304C306.946 309.333 309.333 311.721 309.333 314.667V357.333C309.333 360.279 306.946 362.667 304 362.667H261.333C258.388 362.667 256 360.279 256 357.333V314.667Z" fill="#FFC008"/>
<path d="M362.667 314.667C362.667 311.721 365.054 309.333 368 309.333H410.667C413.612 309.333 416 311.721 416 314.667V357.333C416 360.279 413.612 362.667 410.667 362.667H368C365.054 362.667 362.667 360.279 362.667 357.333V314.667Z" fill="#FFC008"/>
<path d="M309.333 368C309.333 365.054 311.721 362.667 314.667 362.667H357.333C360.279 362.667 362.667 365.054 362.667 368V410.667C362.667 413.612 360.279 416 357.333 416H314.667C311.721 416 309.333 413.612 309.333 410.667V368Z" fill="#FFC008"/>
<path d="M405.333 96H106.667C100.776 96 96 100.776 96 106.667V405.333C96 411.224 100.776 416 106.667 416H245.333C251.224 416 256 411.224 256 405.333V373.333C256 367.442 251.224 362.667 245.333 362.667H154.667C151.721 362.667 149.333 360.279 149.333 357.333V154.667C149.333 151.721 151.721 149.333 154.667 149.333H357.333C360.279 149.333 362.667 151.721 362.667 154.667V245.333C362.667 251.224 367.442 256 373.333 256H405.333C411.224 256 416 251.224 416 245.333V106.667C416 100.776 411.224 96 405.333 96Z" fill="#212121"/>
</svg>
